<svg xmlns="http://www.w3.org/2000/svg" xmlns:xlink="http://www.w3.org/1999/xlink" width="297" zoomAndPan="magnify" viewBox="0 0 222.75 222.749995" height="297" preserveAspectRatio="xMidYMid meet" version="1.0"><defs><g/></defs><g fill="#e8c97a" fill-opacity="1"><g transform="translate(60.456004, 149.17044)"><g><path d="M 76.828125 -1.4375 C 77.066406 -1.4375 77.1875 -1.195312 77.1875 -0.71875 C 77.1875 -0.238281 77.066406 0 76.828125 0 L 63.40625 0 C 62.769531 0 61.628906 0.0195312 59.984375 0.0625 C 58.347656 0.101562 56.050781 -1.929688 53.09375 -6.046875 C 50.132812 -10.160156 47.300781 -13.9375 44.59375 -17.375 L 26.25 -40.515625 L 22.296875 -36.671875 L 22.296875 -9.703125 C 22.296875 -7.304688 22.535156 -5.53125 23.015625 -4.375 C 23.492188 -3.21875 24.429688 -2.4375 25.828125 -2.03125 C 27.222656 -1.632812 29.441406 -1.4375 32.484375 -1.4375 C 32.722656 -1.4375 32.84375 -1.195312 32.84375 -0.71875 C 32.84375 -0.238281 32.722656 0 32.484375 0 C 30.085938 0 28.171875 -0.0390625 26.734375 -0.125 L 18.34375 -0.234375 L 10.1875 -0.125 C 8.75 -0.0390625 6.75 0 4.1875 0 C 4.03125 0 3.953125 -0.238281 3.953125 -0.71875 C 3.953125 -1.195312 4.03125 -1.4375 4.1875 -1.4375 C 7.226562 -1.4375 9.445312 -1.632812 10.84375 -2.03125 C 12.238281 -2.4375 13.195312 -3.21875 13.71875 -4.375 C 14.238281 -5.53125 14.5 -7.304688 14.5 -9.703125 L 14.5 -65.203125 C 14.5 -67.597656 14.257812 -69.351562 13.78125 -70.46875 C 13.300781 -71.59375 12.363281 -72.375 10.96875 -72.8125 C 9.570312 -73.25 7.351562 -73.46875 4.3125 -73.46875 C 4.15625 -73.46875 4.078125 -73.707031 4.078125 -74.1875 C 4.078125 -74.664062 4.15625 -74.90625 4.3125 -74.90625 L 10.3125 -74.796875 C 13.664062 -74.628906 16.34375 -74.546875 18.34375 -74.546875 C 20.65625 -74.546875 23.488281 -74.628906 26.84375 -74.796875 L 32.484375 -74.90625 C 32.722656 -74.90625 32.84375 -74.664062 32.84375 -74.1875 C 32.84375 -73.707031 32.722656 -73.46875 32.484375 -73.46875 C 29.523438 -73.46875 27.347656 -73.226562 25.953125 -72.75 C 24.554688 -72.269531 23.597656 -71.453125 23.078125 -70.296875 C 22.554688 -69.140625 22.296875 -67.363281 22.296875 -64.96875 L 22.296875 -39.671875 L 47.9375 -65.203125 C 50.582031 -67.835938 51.90625 -69.796875 51.90625 -71.078125 C 51.90625 -72.671875 49.546875 -73.46875 44.828125 -73.46875 C 44.671875 -73.46875 44.59375 -73.707031 44.59375 -74.1875 C 44.59375 -74.664062 44.671875 -74.90625 44.828125 -74.90625 L 49.984375 -74.796875 C 53.179688 -74.628906 56.097656 -74.546875 58.734375 -74.546875 C 61.367188 -74.546875 64.125 -74.628906 67 -74.796875 L 71.4375 -74.90625 C 71.675781 -74.90625 71.796875 -74.664062 71.796875 -74.1875 C 71.796875 -73.707031 71.675781 -73.46875 71.4375 -73.46875 C 68.15625 -73.46875 64.675781 -72.75 61 -71.3125 C 57.332031 -69.875 53.898438 -67.597656 50.703125 -64.484375 L 31.765625 -45.90625 L 49.015625 -23.859375 C 54.847656 -16.265625 59.300781 -10.90625 62.375 -7.78125 C 65.457031 -4.664062 67.835938 -2.828125 69.515625 -2.265625 C 71.191406 -1.710938 73.628906 -1.4375 76.828125 -1.4375 Z M 76.828125 -1.4375 "/></g></g></g><g fill="#e8c97a" fill-opacity="1"><g transform="translate(138.368601, 149.17044)"><g><path d="M 4.796875 0 C 4.554688 0 4.4375 -0.238281 4.4375 -0.71875 C 4.4375 -1.195312 4.554688 -1.4375 4.796875 -1.4375 C 6.953125 -1.4375 8.546875 -1.65625 9.578125 -2.09375 C 10.617188 -2.53125 11.335938 -3.328125 11.734375 -4.484375 C 12.140625 -5.648438 12.34375 -7.390625 12.34375 -9.703125 L 12.34375 -71.671875 C 12.34375 -74.546875 12.0625 -76.625 11.5 -77.90625 C 10.945312 -79.1875 9.953125 -79.828125 8.515625 -79.828125 C 7.316406 -79.828125 5.476562 -79.265625 3 -78.140625 L 2.75 -78.140625 C 2.507812 -78.140625 2.328125 -78.335938 2.203125 -78.734375 C 2.085938 -79.140625 2.148438 -79.382812 2.390625 -79.46875 L 17.734375 -86.78125 C 17.898438 -86.851562 18.101562 -86.890625 18.34375 -86.890625 C 18.5 -86.890625 18.71875 -86.789062 19 -86.59375 C 19.28125 -86.394531 19.421875 -86.175781 19.421875 -85.9375 L 19.421875 -9.703125 C 19.421875 -7.390625 19.597656 -5.671875 19.953125 -4.546875 C 20.316406 -3.429688 21.015625 -2.632812 22.046875 -2.15625 C 23.085938 -1.675781 24.6875 -1.4375 26.84375 -1.4375 C 27.082031 -1.4375 27.203125 -1.195312 27.203125 -0.71875 C 27.203125 -0.238281 27.082031 0 26.84375 0 C 25.09375 0 23.65625 -0.0390625 22.53125 -0.125 L 15.828125 -0.234375 L 9.34375 -0.125 C 8.226562 -0.0390625 6.710938 0 4.796875 0 Z M 4.796875 0 "/></g></g></g></svg>