<svg xmlns="http://www.w3.org/2000/svg" xmlns:xlink="http://www.w3.org/1999/xlink" width="696" zoomAndPan="magnify" viewBox="0 0 522 251.250001" height="335" preserveAspectRatio="xMidYMid meet" version="1.0"><defs><g/><clipPath id="27dccf21c2"><rect x="0" width="293" y="0" height="138"/></clipPath></defs><g transform="matrix(1, 0, 0, 1, 115, 56)"><g clip-path="url(#27dccf21c2)"><g fill="#e8c97a" fill-opacity="1"><g transform="translate(0.438824, 104.338891)"><g><path d="M 69.46875 -70.140625 C 69.6875 -70.140625 69.796875 -69.914062 69.796875 -69.46875 C 69.796875 -69.019531 69.6875 -68.796875 69.46875 -68.796875 C 66.769531 -68.796875 63.832031 -68.140625 60.65625 -66.828125 C 57.476562 -65.515625 54.390625 -63.398438 51.390625 -60.484375 L 31.3125 -42.75 L 42.53125 -22.671875 C 46.34375 -15.785156 49.273438 -10.882812 51.328125 -7.96875 C 53.390625 -5.050781 55.09375 -3.21875 56.4375 -2.46875 C 57.789062 -1.71875 59.550781 -1.34375 61.71875 -1.34375 C 61.945312 -1.34375 62.0625 -1.117188 62.0625 -0.671875 C 62.0625 -0.222656 61.945312 0 61.71875 0 L 52.1875 0 C 49.488281 0 47.800781 -0.1875 47.125 -0.5625 C 46.457031 -0.9375 45 -3.289062 42.75 -7.625 C 40.507812 -11.96875 38.941406 -14.960938 38.046875 -16.609375 L 26.03125 -38.046875 L 21.765625 -34.34375 L 17.28125 -9.09375 C 16.832031 -6.394531 16.609375 -4.820312 16.609375 -4.375 C 16.609375 -3.175781 17.054688 -2.367188 17.953125 -1.953125 C 18.847656 -1.546875 20.566406 -1.34375 23.109375 -1.34375 C 23.265625 -1.34375 23.34375 -1.117188 23.34375 -0.671875 C 23.34375 -0.222656 23.265625 0 23.109375 0 C 21.171875 0 19.710938 -0.0351562 18.734375 -0.109375 L 12.453125 -0.21875 L 5.828125 -0.109375 C 4.710938 -0.0351562 3.179688 0 1.234375 0 C 1.003906 0 0.890625 -0.222656 0.890625 -0.671875 C 0.890625 -1.117188 1.003906 -1.34375 1.234375 -1.34375 C 3.628906 -1.34375 5.441406 -1.53125 6.671875 -1.90625 C 7.910156 -2.28125 8.828125 -3.007812 9.421875 -4.09375 C 10.023438 -5.175781 10.515625 -6.84375 10.890625 -9.09375 L 20.09375 -61.046875 C 20.3125 -62.546875 20.421875 -63.707031 20.421875 -64.53125 C 20.421875 -66.25 19.914062 -67.390625 18.90625 -67.953125 C 17.894531 -68.515625 16.003906 -68.796875 13.234375 -68.796875 C 13.085938 -68.796875 13.015625 -69.019531 13.015625 -69.46875 C 13.015625 -69.914062 13.085938 -70.140625 13.234375 -70.140625 L 17.953125 -70.03125 C 20.648438 -69.875 22.820312 -69.796875 24.46875 -69.796875 C 26.257812 -69.796875 28.578125 -69.875 31.421875 -70.03125 L 36.015625 -70.140625 C 36.171875 -70.140625 36.25 -69.914062 36.25 -69.46875 C 36.25 -69.019531 36.171875 -68.796875 36.015625 -68.796875 C 33.628906 -68.796875 31.851562 -68.566406 30.6875 -68.109375 C 29.53125 -67.660156 28.648438 -66.894531 28.046875 -65.8125 C 27.453125 -64.726562 26.929688 -63.066406 26.484375 -60.828125 L 22.21875 -36.921875 L 49.046875 -61.15625 C 51.804688 -63.695312 53.1875 -65.601562 53.1875 -66.875 C 53.1875 -68.15625 51.46875 -68.796875 48.03125 -68.796875 C 47.882812 -68.796875 47.8125 -69.019531 47.8125 -69.46875 C 47.8125 -69.914062 47.882812 -70.140625 48.03125 -70.140625 L 52.296875 -70.03125 C 54.984375 -69.875 57.414062 -69.796875 59.59375 -69.796875 C 61.613281 -69.796875 63.742188 -69.875 65.984375 -70.03125 Z M 69.46875 -70.140625 "/></g></g></g><g fill="#e8c97a" fill-opacity="1"><g transform="translate(67.194767, 104.338891)"><g><path d="M 10.21875 1.015625 C 8.789062 1.015625 7.757812 0.625 7.125 -0.15625 C 6.488281 -0.945312 6.171875 -2.28125 6.171875 -4.15625 C 6.171875 -5.726562 6.394531 -7.671875 6.84375 -9.984375 L 17.953125 -69.46875 C 18.097656 -70.0625 18.171875 -70.882812 18.171875 -71.9375 C 18.171875 -73.800781 17.425781 -74.734375 15.9375 -74.734375 C 14.738281 -74.734375 12.941406 -74.171875 10.546875 -73.046875 L 10.328125 -73.046875 C 10.023438 -73.046875 9.816406 -73.234375 9.703125 -73.609375 C 9.585938 -73.984375 9.679688 -74.207031 9.984375 -74.28125 L 24.46875 -81.359375 L 24.6875 -81.359375 C 24.988281 -81.359375 25.269531 -81.242188 25.53125 -81.015625 C 25.789062 -80.796875 25.882812 -80.609375 25.8125 -80.453125 L 12.796875 -9.984375 C 12.492188 -8.335938 12.34375 -7.289062 12.34375 -6.84375 C 12.34375 -5.71875 12.546875 -4.875 12.953125 -4.3125 C 13.367188 -3.757812 13.914062 -3.484375 14.59375 -3.484375 C 16.15625 -3.484375 18.582031 -5.203125 21.875 -8.640625 C 22.03125 -8.785156 22.179688 -8.859375 22.328125 -8.859375 C 22.554688 -8.859375 22.742188 -8.726562 22.890625 -8.46875 C 23.035156 -8.207031 23 -7.96875 22.78125 -7.75 C 20.238281 -4.75 17.972656 -2.535156 15.984375 -1.109375 C 14.003906 0.304688 12.082031 1.015625 10.21875 1.015625 Z M 10.21875 1.015625 "/></g></g></g><g fill="#e8c97a" fill-opacity="1"><g transform="translate(93.784937, 104.338891)"><g><path d="M 45.890625 -8.640625 C 45.972656 -8.710938 46.085938 -8.75 46.234375 -8.75 C 46.460938 -8.75 46.648438 -8.617188 46.796875 -8.359375 C 46.941406 -8.097656 46.941406 -7.894531 46.796875 -7.75 C 44.253906 -4.820312 41.988281 -2.628906 40 -1.171875 C 38.019531 0.285156 36.097656 1.015625 34.234375 1.015625 C 32.953125 1.015625 31.992188 0.625 31.359375 -0.15625 C 30.722656 -0.945312 30.40625 -2.242188 30.40625 -4.046875 C 30.40625 -5.535156 30.628906 -7.515625 31.078125 -9.984375 L 33.109375 -21.65625 C 29.660156 -14.695312 25.785156 -9.101562 21.484375 -4.875 C 17.179688 -0.65625 13.050781 1.453125 9.09375 1.453125 C 4.445312 1.453125 2.125 -1.3125 2.125 -6.84375 C 2.125 -7.445312 2.203125 -8.570312 2.359375 -10.21875 C 3.109375 -15.519531 5.085938 -20.863281 8.296875 -26.25 C 11.515625 -31.644531 15.289062 -36.082031 19.625 -39.5625 C 23.96875 -43.039062 28.050781 -44.78125 31.875 -44.78125 C 33.289062 -44.78125 34.671875 -44.515625 36.015625 -43.984375 C 37.367188 -43.460938 38.457031 -42.679688 39.28125 -41.640625 C 40.625 -42.753906 41.519531 -44.097656 41.96875 -45.671875 C 42.039062 -45.898438 42.300781 -45.972656 42.75 -45.890625 C 43.195312 -45.816406 43.382812 -45.707031 43.3125 -45.5625 L 36.8125 -9.984375 C 36.582031 -8.859375 36.46875 -7.847656 36.46875 -6.953125 C 36.46875 -4.640625 37.140625 -3.484375 38.484375 -3.484375 C 40.128906 -3.484375 42.597656 -5.203125 45.890625 -8.640625 Z M 13.125 -4.046875 C 15.820312 -4.046875 18.6875 -5.425781 21.71875 -8.1875 C 24.75 -10.957031 27.457031 -14.457031 29.84375 -18.6875 C 32.238281 -22.914062 33.847656 -27.046875 34.671875 -31.078125 C 34.898438 -32.054688 34.976562 -32.921875 34.90625 -33.671875 C 34.90625 -35.910156 34.320312 -37.664062 33.15625 -38.9375 C 32 -40.207031 30.257812 -40.84375 27.9375 -40.84375 C 25.320312 -40.769531 22.648438 -39.59375 19.921875 -37.3125 C 17.191406 -35.03125 14.816406 -31.960938 12.796875 -28.109375 C 10.773438 -24.253906 9.425781 -19.972656 8.75 -15.265625 C 8.53125 -13.617188 8.421875 -12.117188 8.421875 -10.765625 C 8.421875 -6.285156 9.988281 -4.046875 13.125 -4.046875 Z M 13.125 -4.046875 "/></g></g></g><g fill="#e8c97a" fill-opacity="1"><g transform="translate(142.477487, 104.338891)"><g><path d="M 32.4375 -44.328125 C 33.851562 -44.328125 35.234375 -43.800781 36.578125 -42.75 C 37.929688 -41.707031 38.609375 -40.472656 38.609375 -39.046875 C 38.609375 -37.929688 38.25 -37 37.53125 -36.25 C 36.820312 -35.5 35.945312 -35.125 34.90625 -35.125 C 34.082031 -35.125 33.425781 -35.3125 32.9375 -35.6875 C 32.445312 -36.0625 31.941406 -36.625 31.421875 -37.375 C 31.117188 -37.75 30.78125 -38.101562 30.40625 -38.4375 C 30.03125 -38.769531 29.617188 -38.9375 29.171875 -38.9375 C 27.523438 -38.9375 25.5625 -36.765625 23.28125 -32.421875 C 21 -28.085938 18.847656 -22.890625 16.828125 -16.828125 C 14.804688 -10.773438 13.347656 -5.425781 12.453125 -0.78125 C 12.378906 -0.257812 12.023438 0.144531 11.390625 0.4375 C 10.753906 0.738281 9.910156 0.890625 8.859375 0.890625 C 7.890625 0.890625 7.234375 0.832031 6.890625 0.71875 C 6.554688 0.613281 6.390625 0.445312 6.390625 0.21875 L 6.953125 -2.359375 L 8.078125 -8.296875 L 11.78125 -29.0625 C 12.226562 -31.53125 12.453125 -33.476562 12.453125 -34.90625 C 12.453125 -38.269531 11.554688 -39.953125 9.765625 -39.953125 C 8.117188 -39.953125 5.835938 -38.566406 2.921875 -35.796875 L 2.6875 -35.6875 C 2.46875 -35.6875 2.28125 -35.816406 2.125 -36.078125 C 1.976562 -36.335938 1.941406 -36.546875 2.015625 -36.703125 C 4.335938 -39.242188 6.46875 -41.148438 8.40625 -42.421875 C 10.351562 -43.691406 12.265625 -44.328125 14.140625 -44.328125 C 15.640625 -44.328125 16.742188 -43.835938 17.453125 -42.859375 C 18.160156 -41.890625 18.515625 -40.207031 18.515625 -37.8125 C 18.515625 -35.945312 18.21875 -33.109375 17.625 -29.296875 L 15.265625 -16.5 C 17.804688 -24.351562 20.59375 -30.953125 23.625 -36.296875 C 26.65625 -41.648438 29.59375 -44.328125 32.4375 -44.328125 Z M 32.4375 -44.328125 "/></g></g></g><g fill="#e8c97a" fill-opacity="1"><g transform="translate(180.62375, 104.338891)"><g><path d="M 19.296875 -57.5625 C 17.804688 -57.5625 16.628906 -57.992188 15.765625 -58.859375 C 14.898438 -59.722656 14.46875 -60.898438 14.46875 -62.390625 C 14.46875 -63.816406 14.898438 -64.941406 15.765625 -65.765625 C 16.628906 -66.585938 17.804688 -67 19.296875 -67 C 20.796875 -67 21.957031 -66.585938 22.78125 -65.765625 C 23.601562 -64.941406 24.015625 -63.816406 24.015625 -62.390625 C 24.015625 -60.898438 23.601562 -59.722656 22.78125 -58.859375 C 21.957031 -57.992188 20.796875 -57.5625 19.296875 -57.5625 Z M 12.234375 1.015625 C 10.890625 1.015625 9.878906 0.625 9.203125 -0.15625 C 8.523438 -0.945312 8.1875 -2.242188 8.1875 -4.046875 C 8.1875 -5.160156 8.453125 -7.140625 8.984375 -9.984375 L 13.578125 -33.328125 C 13.804688 -34.453125 13.921875 -35.460938 13.921875 -36.359375 C 13.921875 -38.753906 13.171875 -39.953125 11.671875 -39.953125 C 10.773438 -39.953125 9.632812 -39.5 8.25 -38.59375 C 6.863281 -37.695312 5.421875 -36.425781 3.921875 -34.78125 C 3.847656 -34.707031 3.738281 -34.671875 3.59375 -34.671875 C 3.363281 -34.671875 3.15625 -34.800781 2.96875 -35.0625 C 2.78125 -35.332031 2.800781 -35.539062 3.03125 -35.6875 C 5.644531 -38.675781 8 -40.863281 10.09375 -42.25 C 12.1875 -43.632812 14.171875 -44.328125 16.046875 -44.328125 C 17.390625 -44.328125 18.378906 -43.929688 19.015625 -43.140625 C 19.648438 -42.359375 19.96875 -41.070312 19.96875 -39.28125 C 19.96875 -37.851562 19.742188 -35.941406 19.296875 -33.546875 L 14.703125 -9.984375 C 14.472656 -8.785156 14.359375 -7.773438 14.359375 -6.953125 C 14.359375 -4.640625 15.070312 -3.484375 16.5 -3.484375 C 18.289062 -3.484375 20.832031 -5.128906 24.125 -8.421875 C 24.269531 -8.566406 24.421875 -8.640625 24.578125 -8.640625 C 24.796875 -8.640625 24.976562 -8.507812 25.125 -8.25 C 25.28125 -7.988281 25.25 -7.742188 25.03125 -7.515625 C 22.476562 -4.597656 20.191406 -2.445312 18.171875 -1.0625 C 16.160156 0.320312 14.179688 1.015625 12.234375 1.015625 Z M 12.234375 1.015625 "/></g></g></g><g fill="#e8c97a" fill-opacity="1"><g transform="translate(208.335893, 104.338891)"><g><path d="M 32.546875 -42.984375 C 33.066406 -42.984375 33.328125 -42.71875 33.328125 -42.1875 C 33.328125 -41.59375 32.914062 -40.804688 32.09375 -39.828125 C 31.269531 -38.859375 30.484375 -38.375 29.734375 -38.375 C 29.359375 -38.375 27.878906 -38.539062 25.296875 -38.875 C 22.722656 -39.21875 20.203125 -39.425781 17.734375 -39.5 L 12.796875 -11.671875 C 12.566406 -10.472656 12.453125 -9.390625 12.453125 -8.421875 C 12.453125 -6.546875 12.898438 -5.160156 13.796875 -4.265625 C 14.703125 -3.367188 16.085938 -2.921875 17.953125 -2.921875 C 19.898438 -2.921875 21.734375 -3.347656 23.453125 -4.203125 C 25.171875 -5.066406 26.929688 -6.285156 28.734375 -7.859375 L 28.84375 -7.859375 C 29.0625 -7.859375 29.300781 -7.742188 29.5625 -7.515625 C 29.832031 -7.296875 29.851562 -7.109375 29.625 -6.953125 C 26.257812 -4.035156 23.320312 -1.921875 20.8125 -0.609375 C 18.3125 0.691406 15.898438 1.34375 13.578125 1.34375 C 11.410156 1.34375 9.613281 0.785156 8.1875 -0.328125 C 6.769531 -1.453125 6.0625 -3.25 6.0625 -5.71875 C 6.0625 -6.164062 6.132812 -6.988281 6.28125 -8.1875 L 11.109375 -34.34375 C 11.410156 -35.757812 11.5625 -36.957031 11.5625 -37.9375 C 11.5625 -38.976562 11.257812 -39.664062 10.65625 -40 C 10.0625 -40.34375 8.941406 -40.515625 7.296875 -40.515625 C 7.066406 -40.515625 6.953125 -40.703125 6.953125 -41.078125 C 6.953125 -41.222656 7.007812 -41.390625 7.125 -41.578125 C 7.238281 -41.765625 7.332031 -41.859375 7.40625 -41.859375 C 9.945312 -41.859375 12.148438 -42.679688 14.015625 -44.328125 C 15.890625 -45.972656 17.164062 -48.03125 17.84375 -50.5 C 17.988281 -50.71875 18.328125 -50.828125 18.859375 -50.828125 C 19.597656 -50.828125 19.894531 -50.71875 19.75 -50.5 L 18.296875 -42.1875 C 21.960938 -42.34375 25.441406 -42.53125 28.734375 -42.75 Z M 32.546875 -42.984375 "/></g></g></g><g fill="#e8c97a" fill-opacity="1"><g transform="translate(241.433363, 104.338891)"><g><path d="M 41.296875 -44.4375 C 44.140625 -44.4375 45.5625 -42.378906 45.5625 -38.265625 C 45.5625 -32.128906 42.660156 -23.394531 36.859375 -12.0625 C 31.066406 -0.726562 24.390625 9.367188 16.828125 18.234375 C 9.273438 27.097656 2.992188 31.53125 -2.015625 31.53125 C -3.515625 31.53125 -4.691406 31.15625 -5.546875 30.40625 C -6.410156 29.664062 -6.734375 28.46875 -6.515625 26.8125 C -6.054688 24.800781 -4.554688 23.796875 -2.015625 23.796875 C 1.203125 23.796875 3.800781 23.660156 5.78125 23.390625 C 7.757812 23.128906 9.609375 22.363281 11.328125 21.09375 C 13.648438 19.519531 16.679688 16.117188 20.421875 10.890625 L 20.53125 5.15625 C 20.53125 -8.90625 19.390625 -19.84375 17.109375 -27.65625 C 14.828125 -35.476562 11.707031 -39.390625 7.75 -39.390625 C 5.425781 -39.390625 3.550781 -38.003906 2.125 -35.234375 C 2.050781 -35.015625 1.828125 -34.90625 1.453125 -34.90625 C 0.929688 -34.90625 0.707031 -35.128906 0.78125 -35.578125 C 3.625 -41.410156 7.101562 -44.328125 11.21875 -44.328125 C 14.363281 -44.328125 17.054688 -42.53125 19.296875 -38.9375 C 21.546875 -35.34375 23.269531 -30.441406 24.46875 -24.234375 C 25.664062 -18.023438 26.265625 -11.066406 26.265625 -3.359375 C 26.265625 -0.742188 26.222656 1.234375 26.140625 2.578125 C 29.359375 -2.429688 32.203125 -7.367188 34.671875 -12.234375 C 37.140625 -17.097656 38.710938 -20.910156 39.390625 -23.671875 C 39.765625 -25.097656 39.953125 -26.671875 39.953125 -28.390625 C 39.953125 -30.929688 39.351562 -33.925781 38.15625 -37.375 C 37.550781 -38.789062 37.25 -39.910156 37.25 -40.734375 C 37.25 -41.785156 37.625 -42.664062 38.375 -43.375 C 39.125 -44.082031 40.097656 -44.4375 41.296875 -44.4375 Z M 41.296875 -44.4375 "/></g></g></g></g></g></svg>